<svg width="25" height="25" viewBox="0 0 25 25" fill="none" xmlns="http://www.w3.org/2000/svg">
<g clip-path="url(#clip0_56_2)">
<path d="M21.7902 6.10451L16.7901 1.10449C16.6964 1.01074 16.5695 0.958008 16.4366 0.958008H5.93661C4.83411 0.958008 3.93665 1.85496 3.93665 2.95802V22.958C3.93665 24.0611 4.83411 24.958 5.93666 24.958H19.9367C21.0392 24.958 21.9366 24.0611 21.9366 22.958V6.45799C21.9366 6.3252 21.8839 6.19826 21.7902 6.10451ZM16.9366 2.66505L20.2296 5.95802H17.9366C17.3848 5.95802 16.9366 5.50929 16.9366 4.95804V2.66505ZM20.9367 22.958C20.9367 23.5092 20.4884 23.958 19.9367 23.958H5.93666C5.3849 23.958 4.93668 23.5092 4.93668 22.958V2.95802C4.93668 2.40677 5.38494 1.95804 5.93666 1.95804H15.9366V4.95804C15.9366 6.06105 16.8341 6.95801 17.9367 6.95801H20.9367V22.958Z" fill="white"/>
<path d="M18.4366 14.958H11.4366C11.1603 14.958 10.9366 15.1816 10.9366 15.458C10.9366 15.7344 11.1603 15.958 11.4366 15.958H18.4366C18.713 15.958 18.9366 15.7344 18.9366 15.458C18.9366 15.1816 18.713 14.958 18.4366 14.958Z" fill="white"/>
<path d="M7.43666 6.95804H13.4367C13.713 6.95804 13.9367 6.7344 13.9367 6.45802C13.9367 6.18165 13.713 5.95801 13.4367 5.95801H7.43666C7.16029 5.95801 6.93665 6.18165 6.93665 6.45802C6.93665 6.7344 7.16029 6.95804 7.43666 6.95804Z" fill="white"/>
<path d="M18.4366 11.958H7.43666C7.16029 11.958 6.93665 12.1816 6.93665 12.458C6.93665 12.7344 7.16029 12.958 7.43666 12.958H18.4367C18.7131 12.958 18.9367 12.7344 18.9367 12.458C18.9366 12.1816 18.713 11.958 18.4366 11.958Z" fill="white"/>
<path d="M6.93665 9.45802C6.93665 9.7344 7.16029 9.95804 7.43666 9.95804H18.4367C18.7131 9.95804 18.9367 9.7344 18.9367 9.45802C18.9367 9.18165 18.7131 8.95801 18.4367 8.95801H7.43666C7.16029 8.95805 6.93665 9.18169 6.93665 9.45802Z" fill="white"/>
<path d="M14.0861 19.1016C13.3507 19.8253 12.424 20.6406 12.0568 20.8887C11.9698 20.6919 11.8712 20.3628 11.8116 20.1631C11.6085 19.4898 11.4493 18.958 10.9366 18.958C10.4982 18.958 10.3009 19.3589 10.002 19.9654C9.85555 20.2622 9.55185 20.8804 9.4415 20.958C9.33308 20.9468 9.14755 20.8203 8.94346 20.6299C9.49429 19.9185 9.93665 19.0948 9.93665 18.458C9.93665 17.3652 9.01672 16.958 8.43665 16.958C7.84682 16.958 6.93665 17.8169 6.93665 18.958C6.93665 19.4639 7.21691 20.0889 7.61436 20.6372C7.45616 20.7954 7.29501 20.939 7.1368 21.0581C6.91611 21.2236 6.87116 21.5371 7.03621 21.7578C7.13483 21.8892 7.28525 21.958 7.43661 21.958C7.5411 21.958 7.64657 21.9253 7.73643 21.8579C7.9093 21.7286 8.09483 21.566 8.28135 21.3804C8.67294 21.729 9.08896 21.958 9.43663 21.958C10.1124 21.958 10.5138 21.189 10.8624 20.4815C11.0929 21.2451 11.3156 21.958 11.9367 21.958C12.1037 21.958 12.6105 21.958 14.7873 19.8145C14.9845 19.6206 14.9865 19.3042 14.7931 19.1075C14.5997 18.9097 14.2833 18.9087 14.0861 19.1016ZM8.2843 19.8448C8.08119 19.5352 7.93663 19.2139 7.93663 18.958C7.93663 18.3482 8.38391 17.9912 8.43665 17.958C8.51966 17.958 8.93666 17.9819 8.93666 18.4581C8.93666 18.7769 8.66713 19.315 8.2843 19.8448Z" fill="white"/>
</g>
<defs>
<clipPath id="clip0_56_2">
<rect width="24" height="24" fill="white" transform="translate(0.936646 0.958008)"/>
</clipPath>
</defs>
</svg>
