<svg width="25" height="25" viewBox="0 0 25 25" fill="none" xmlns="http://www.w3.org/2000/svg">
<g clip-path="url(#clip0_56_54)">
<path d="M24.4679 23.083H23.6671V12.252C23.6671 11.9931 23.4573 11.7832 23.1984 11.7832H19.8234C19.5645 11.7832 19.3546 11.9931 19.3546 12.252V23.083H17.951V16.5049C17.951 16.246 17.7411 16.0362 17.4823 16.0362H14.1073C13.8484 16.0362 13.6385 16.246 13.6385 16.5049V23.083H12.2349V20.0112C12.2349 19.7523 12.025 19.5425 11.7661 19.5425C11.5072 19.5425 11.2974 19.7523 11.2974 20.0112V23.083H8.85988V12.7207H11.2974V15.7925C11.2974 16.0514 11.5072 16.2612 11.7661 16.2612C12.025 16.2612 12.2349 16.0514 12.2349 15.7925V12.252C12.2349 11.9931 12.025 11.7832 11.7661 11.7832H8.39113C8.13224 11.7832 7.92238 11.9931 7.92238 12.252V23.083H6.51875V16.5049C6.51875 16.246 6.3089 16.0362 6.05 16.0362H2.675C2.41611 16.0362 2.20625 16.246 2.20625 16.5049V23.083H1.4054C1.1465 23.083 0.936646 23.2929 0.936646 23.5518C0.936646 23.8107 1.1465 24.0205 1.4054 24.0205H24.4679C24.7268 24.0205 24.9366 23.8107 24.9366 23.5518C24.9366 23.2929 24.7268 23.083 24.4679 23.083ZM3.14366 23.083V16.9737H5.58116V23.083H3.14366ZM14.576 23.083V16.9737H17.0135V23.083H14.576ZM20.2921 23.083V12.7207H22.7296V23.083H20.2921Z" fill="white"/>
<path d="M4.36241 11.9241C5.55135 11.9241 6.51866 10.9568 6.51866 9.76788C6.51866 9.3431 6.39468 8.94696 6.18172 8.61274L8.92344 5.87107C9.25762 6.08402 9.6538 6.20801 10.0786 6.20801C10.5034 6.20801 10.8995 6.08402 11.2337 5.87112L13.9759 8.61331C13.7626 8.94766 13.6385 9.34409 13.6385 9.7692C13.6385 10.9581 14.6058 11.9254 15.7947 11.9254C16.9837 11.9254 17.951 10.9581 17.951 9.7692C17.951 9.34409 17.8268 8.94766 17.6136 8.61331L20.3557 5.87112C20.6899 6.08407 21.0861 6.20801 21.5108 6.20801C22.6998 6.20801 23.6671 5.2407 23.6671 4.05176C23.6671 2.86282 22.6998 1.89551 21.5108 1.89551C20.3219 1.89551 19.3546 2.86282 19.3546 4.05176C19.3546 4.47724 19.479 4.87395 19.6925 5.20849L16.9506 7.9504C16.6162 7.73716 16.2198 7.61299 15.7947 7.61299C15.3696 7.61299 14.9732 7.73716 14.6388 7.9504L11.8969 5.20849C12.1105 4.87399 12.2348 4.47724 12.2348 4.0518C12.2348 2.86287 11.2675 1.89555 10.0786 1.89555C8.88965 1.89555 7.92234 2.86287 7.92234 4.0518C7.92234 4.47724 8.04669 4.87399 8.26026 5.20849L5.51915 7.94955C5.1846 7.73599 4.7879 7.61163 4.36246 7.61163C3.17352 7.61163 2.20621 8.57895 2.20621 9.76788C2.20621 10.9568 3.17347 11.9241 4.36241 11.9241ZM21.5109 2.83301C22.1829 2.83301 22.7296 3.37976 22.7296 4.05176C22.7296 4.72376 22.1829 5.27051 21.5109 5.27051C20.8389 5.27051 20.2921 4.72376 20.2921 4.05176C20.2921 3.37976 20.8388 2.83301 21.5109 2.83301ZM17.0135 9.7692C17.0135 10.4412 16.4667 10.9879 15.7947 10.9879C15.1227 10.9879 14.576 10.4412 14.576 9.7692C14.576 9.0972 15.1227 8.55045 15.7947 8.55045C16.4667 8.55045 17.0135 9.0972 17.0135 9.7692ZM10.0786 2.83301C10.7506 2.83301 11.2973 3.37976 11.2973 4.05176C11.2973 4.72376 10.7506 5.27051 10.0786 5.27051C9.40659 5.27051 8.85984 4.72376 8.85984 4.05176C8.85984 3.37976 9.40654 2.83301 10.0786 2.83301ZM4.36241 8.54913C5.03441 8.54913 5.58116 9.09588 5.58116 9.76788C5.58116 10.4399 5.03441 10.9866 4.36241 10.9866C3.69041 10.9866 3.14366 10.4399 3.14366 9.76788C3.14366 9.09588 3.69041 8.54913 4.36241 8.54913Z" fill="white"/>
<path d="M11.7662 17.4331C11.6429 17.4331 11.522 17.4833 11.4348 17.5704C11.3476 17.6576 11.2974 17.7781 11.2974 17.9019C11.2974 18.0251 11.3476 18.1461 11.4348 18.2333C11.522 18.3204 11.6429 18.3706 11.7662 18.3706C11.8895 18.3706 12.0104 18.3204 12.0976 18.2333C12.1848 18.1461 12.2349 18.0251 12.2349 17.9019C12.2349 17.7786 12.1848 17.6576 12.0976 17.5704C12.0104 17.4833 11.8895 17.4331 11.7662 17.4331Z" fill="white"/>
</g>
<defs>
<clipPath id="clip0_56_54">
<rect width="24" height="24" fill="white" transform="translate(0.936646 0.958008)"/>
</clipPath>
</defs>
</svg>
