<svg width="25" height="25" viewBox="0 0 25 25" fill="none" xmlns="http://www.w3.org/2000/svg">
<g clip-path="url(#clip0_56_48)">
<path d="M14.5324 21.8652H12.1439C12.0195 21.8652 11.9003 21.9146 11.8124 22.0025C11.7245 22.0904 11.6751 22.2097 11.6751 22.334C11.6751 22.4583 11.7245 22.5775 11.8124 22.6654C11.9003 22.7533 12.0195 22.8027 12.1439 22.8027H14.5324C14.6567 22.8027 14.776 22.7533 14.8639 22.6654C14.9518 22.5775 15.0012 22.4583 15.0012 22.334C15.0012 22.2097 14.9518 22.0904 14.8639 22.0025C14.776 21.9146 14.6567 21.8652 14.5324 21.8652Z" fill="white"/>
<path d="M22.6866 8.73926C21.7415 8.73926 20.9245 9.00377 20.3241 9.50412C20.2688 9.55029 20.2122 9.60143 20.1554 9.65726V2.45801C20.1544 2.13506 20.0257 1.82562 19.7974 1.59726C19.569 1.3689 19.2596 1.2402 18.9366 1.23926H7.68663C7.36369 1.2402 7.05424 1.3689 6.82588 1.59726C6.59753 1.82562 6.46882 2.13506 6.46788 2.45801V3.70488L6.4098 3.6468C6.04057 3.27757 5.53979 3.07014 5.01762 3.07014C4.49545 3.07014 3.99466 3.27757 3.62543 3.6468C3.2562 4.01604 3.04877 4.51682 3.04877 5.03899C3.04877 5.56116 3.2562 6.06195 3.62543 6.43118L5.6539 8.45965C5.32558 8.5554 5.02786 8.73498 4.79002 8.98074C4.55219 9.22649 4.38245 9.52993 4.2975 9.86121C4.21255 10.1925 4.21533 10.5402 4.30555 10.87C4.39578 11.1999 4.57034 11.5006 4.81207 11.7425L5.96594 12.8964C5.59958 12.941 5.25313 13.0877 4.96613 13.3197C4.67913 13.5518 4.46315 13.8598 4.34284 14.2087C4.22252 14.5576 4.20272 14.9333 4.28569 15.2929C4.36866 15.6526 4.55106 15.9816 4.81207 16.2425L5.59085 17.0215C5.22449 17.066 4.87804 17.2127 4.59104 17.4448C4.30404 17.6768 4.08806 17.9849 3.96774 18.3338C3.84743 18.6827 3.82762 19.0584 3.91059 19.418C3.99356 19.7776 4.17596 20.1067 4.43698 20.3676L6.46788 22.3986V23.458C6.46824 23.7811 6.59676 24.0909 6.82524 24.3194C7.05373 24.5479 7.36351 24.6764 7.68663 24.6768H16.6866C16.8109 24.6768 16.9302 24.6274 17.0181 24.5395C17.106 24.4516 17.1554 24.3323 17.1554 24.208V19.708C17.1563 19.3152 17.2482 18.928 17.4239 18.5766C17.5996 18.2253 17.8542 17.9194 18.1679 17.683L19.9679 16.333C20.0258 16.2891 20.0729 16.2324 20.1054 16.1674C20.1379 16.1024 20.155 16.0307 20.1554 15.958V12.208C20.1554 10.3411 21.2949 9.82043 22.2179 9.70488V24.208C22.2179 24.3323 22.2673 24.4516 22.3552 24.5395C22.4431 24.6274 22.5623 24.6768 22.6866 24.6768C22.8109 24.6768 22.9302 24.6274 23.0181 24.5395C23.106 24.4516 23.1554 24.3323 23.1554 24.208V9.20801C23.1554 9.08369 23.106 8.96446 23.0181 8.87655C22.9302 8.78864 22.8109 8.73926 22.6866 8.73926ZM7.68663 2.17676H18.9366C19.0112 2.17683 19.0827 2.20649 19.1354 2.25922C19.1881 2.31194 19.2178 2.38344 19.2179 2.45801V3.8622H7.40538V2.45801C7.40546 2.38344 7.43511 2.31194 7.48784 2.25922C7.54057 2.20649 7.61206 2.17683 7.68663 2.17676ZM3.98609 5.03895C3.97671 4.13088 5.1116 3.66152 5.7469 4.30962L6.46788 5.03065V7.94791L4.2882 5.76823C4.19212 5.67268 4.11594 5.55903 4.06409 5.43385C4.01223 5.30867 3.98572 5.17444 3.98609 5.03895ZM5.47488 9.62126C5.85879 9.22118 6.54944 9.22118 6.9333 9.62126L9.05463 11.7426C9.98618 12.743 8.59282 14.1329 7.59621 13.201L5.47488 11.0797C5.28179 10.8861 5.17335 10.6239 5.17335 10.3505C5.17335 10.0771 5.28179 9.81482 5.47488 9.62126ZM9.71754 11.0797L9.20805 10.5701C9.30501 9.63819 9.72345 8.76907 10.3915 8.11208C11.0596 7.45508 11.9356 7.05121 12.869 6.96984C13.8025 6.88847 14.7351 7.13466 15.5068 7.66615C16.2785 8.19763 16.841 8.98123 17.0977 9.88236C17.3545 10.7835 17.2894 11.7459 16.9138 12.6043C16.5381 13.4627 15.8753 14.1635 15.0392 14.5863C14.203 15.0091 13.2457 15.1276 12.3317 14.9214C11.4177 14.7152 10.604 14.1971 10.0304 13.4562C10.2465 13.0808 10.333 12.6445 10.2765 12.215C10.2199 11.7854 10.0235 11.3864 9.71754 11.0797ZM5.47488 14.1213C5.85879 13.7212 6.54944 13.7212 6.9333 14.1213L9.05463 16.2426C9.98618 17.243 8.59282 18.6329 7.59621 17.701L5.47488 15.5797C5.28179 15.3861 5.17335 15.1239 5.17335 14.8505C5.17335 14.5771 5.28179 14.3148 5.47488 14.1213ZM5.09988 18.2463C5.48379 17.8462 6.17444 17.8462 6.5583 18.2463L8.67963 20.3676C9.61118 21.368 8.21782 22.7579 7.22121 21.826L5.09988 19.7047C4.90679 19.5111 4.79835 19.2489 4.79835 18.9755C4.79835 18.7021 4.90679 18.4398 5.09988 18.2463ZM7.40538 23.458V22.9893C7.58259 23.0401 7.76604 23.0658 7.9504 23.0658C8.22309 23.0659 8.49283 23.0093 8.74248 22.8996C8.99213 22.7899 9.21624 22.6295 9.40058 22.4285C9.58492 22.2276 9.72546 21.9905 9.81328 21.7323C9.9011 21.4741 9.93428 21.2005 9.91071 20.9289H16.2179V23.7393H7.68663C7.61206 23.7392 7.54057 23.7095 7.48784 23.6568C7.43511 23.6041 7.40546 23.5326 7.40538 23.458ZM17.6054 16.933C17.1755 17.257 16.8265 17.6761 16.5858 18.1576C16.3451 18.6391 16.2192 19.1697 16.2179 19.708V19.9911H9.57902C9.5094 19.8884 9.43022 19.7925 9.34254 19.7047L8.56366 18.9258C8.93003 18.8812 9.27648 18.7345 9.56348 18.5025C9.85047 18.2705 10.0665 17.9624 10.1868 17.6135C10.3071 17.2646 10.3269 16.8889 10.2439 16.5293C10.161 16.1697 9.97855 15.8406 9.71754 15.5797L8.56366 14.4258C8.85207 14.3915 9.12914 14.2931 9.3746 14.1379C10.0831 15.0015 11.062 15.6012 12.1532 15.84C13.2445 16.0788 14.3844 15.9427 15.3888 15.4539C16.3933 14.965 17.2036 14.1518 17.6889 13.1457C18.1742 12.1395 18.3062 10.9991 18.0636 9.90873C17.8209 8.81832 17.2178 7.84153 16.3516 7.13612C15.4855 6.43071 14.4068 6.03787 13.2898 6.02105C12.1729 6.00423 11.0829 6.3644 10.1958 7.0434C9.30878 7.7224 8.67652 8.68058 8.40115 9.7632C8.40115 9.7632 7.47185 8.84238 7.40538 8.79082V4.7997H19.2179V15.7236L17.6054 16.933Z" fill="white"/>
<path d="M12.796 11.458H13.5929C13.769 11.4642 13.9358 11.5385 14.0582 11.6653C14.1806 11.7921 14.249 11.9615 14.249 12.1377C14.249 12.3139 14.1806 12.4833 14.0582 12.6101C13.9358 12.7368 13.769 12.8112 13.5929 12.8174H12.4112C12.2475 12.8211 12.13 12.6621 12.154 12.5058C12.1562 12.3815 12.1089 12.2614 12.0226 12.1719C11.9363 12.0824 11.8179 12.0309 11.6936 12.0287C11.5693 12.0264 11.4492 12.0737 11.3597 12.16C11.2702 12.2464 11.2187 12.3647 11.2165 12.489L11.2156 12.5376C11.2127 12.6964 11.2415 12.8542 11.3003 13.0018C11.3591 13.1493 11.4467 13.2837 11.558 13.397C11.6693 13.5104 11.8021 13.6004 11.9486 13.6618C12.0951 13.7233 12.2524 13.7549 12.4112 13.7549H12.7491V14.0361C12.7491 14.1605 12.7985 14.2797 12.8864 14.3676C12.9743 14.4555 13.0936 14.5049 13.2179 14.5049C13.3422 14.5049 13.4614 14.4555 13.5493 14.3676C13.6372 14.2797 13.6866 14.1605 13.6866 14.0361V13.7519C14.1024 13.7216 14.4904 13.532 14.7698 13.2227C15.0492 12.9133 15.1984 12.508 15.1863 12.0914C15.1742 11.6747 15.0018 11.2787 14.7049 10.9861C14.4081 10.6934 14.0097 10.5266 13.5929 10.5205H12.796C12.622 10.5205 12.455 10.4514 12.332 10.3283C12.2089 10.2052 12.1398 10.0383 12.1398 9.86426C12.1398 9.69021 12.2089 9.52329 12.332 9.40022C12.455 9.27715 12.622 9.20801 12.796 9.20801H13.959C14.1241 9.22179 14.2101 9.31154 14.2168 9.47726C14.2142 9.53876 14.2237 9.60018 14.2448 9.65801C14.2659 9.71585 14.2981 9.76896 14.3398 9.81432C14.4238 9.90593 14.5408 9.9604 14.665 9.96574C14.7892 9.97109 14.9105 9.92687 15.0021 9.84282C15.0937 9.75878 15.1481 9.64178 15.1535 9.51757C15.1604 9.35638 15.1347 9.19546 15.0778 9.04449C15.0209 8.89352 14.934 8.75563 14.8224 8.63912C14.7108 8.52261 14.5768 8.42989 14.4284 8.36654C14.28 8.30319 14.1204 8.27052 13.959 8.27051H13.6866V7.98926C13.6866 7.86494 13.6372 7.74571 13.5493 7.6578C13.4614 7.56989 13.3422 7.52051 13.2179 7.52051C13.0936 7.52051 12.9743 7.56989 12.8864 7.6578C12.7985 7.74571 12.7491 7.86494 12.7491 7.98926V8.27168C12.3308 8.28411 11.9342 8.46059 11.6449 8.76301C11.3557 9.06542 11.197 9.46949 11.2031 9.88793C11.2093 10.3064 11.3798 10.7056 11.6778 10.9994C11.9759 11.2931 12.3775 11.4579 12.796 11.458Z" fill="white"/>
</g>
<defs>
<clipPath id="clip0_56_48">
<rect width="24" height="24" fill="white" transform="translate(0.936646 0.958008)"/>
</clipPath>
</defs>
</svg>
