<svg width="25" height="25" viewBox="0 0 25 25" fill="none" xmlns="http://www.w3.org/2000/svg">
<g clip-path="url(#clip0_56_27)">
<path d="M12.9363 17.4058C12.2653 17.4058 11.7029 17.9682 11.7029 18.6392C11.7029 19.3101 12.2653 19.8725 12.9363 19.8725C13.5826 19.8725 14.1697 19.3101 14.1401 18.6688C14.1697 17.9633 13.6122 17.4058 12.9363 17.4058Z" fill="white"/>
<path d="M24.3526 21.7768C25.1272 20.4398 25.1321 18.8463 24.3625 17.5142L16.6365 4.13438C15.8718 2.78752 14.4904 1.98828 12.9413 1.98828C11.3921 1.98828 10.0107 2.79245 9.24601 4.12945L1.51017 17.5241C0.740529 18.871 0.745463 20.4744 1.52497 21.8114C2.2946 23.1336 3.67107 23.9279 5.21035 23.9279H20.6426C22.1868 23.9279 23.5731 23.1237 24.3526 21.7768ZM22.6752 20.8098C22.246 21.5499 21.4862 21.989 20.6376 21.989H5.20541C4.36671 21.989 3.61187 21.5597 3.19251 20.8345C2.76823 20.0994 2.76329 19.2212 3.18758 18.4812L10.9234 5.0915C11.3428 4.35639 12.0927 3.92224 12.9413 3.92224C13.7849 3.92224 14.5397 4.36133 14.9591 5.09643L22.69 18.4861C23.1044 19.2064 23.0995 20.0747 22.6752 20.8098Z" fill="white"/>
<path d="M12.6304 8.74722C12.0433 8.91496 11.6783 9.44779 11.6783 10.0941C11.7079 10.4838 11.7325 10.8785 11.7621 11.2683C11.846 12.7533 11.9299 14.2087 12.0137 15.6937C12.0433 16.1969 12.4331 16.562 12.9363 16.562C13.4395 16.562 13.8342 16.1722 13.8589 15.6641C13.8589 15.3582 13.8589 15.077 13.8885 14.7662C13.9428 13.814 14.002 12.8618 14.0562 11.9096C14.0858 11.2929 14.1401 10.6762 14.1697 10.0596C14.1697 9.83754 14.1401 9.6402 14.0562 9.44286C13.8046 8.8903 13.2175 8.60908 12.6304 8.74722Z" fill="white"/>
</g>
<defs>
<clipPath id="clip0_56_27">
<rect width="24" height="24" fill="white" transform="translate(0.936646 0.958008)"/>
</clipPath>
</defs>
</svg>
