<svg width="25" height="25" viewBox="0 0 25 25" fill="none" xmlns="http://www.w3.org/2000/svg">
<path d="M12.0039 2.22266C6.48091 2.22266 2.00391 6.69966 2.00391 12.2227C2.00391 17.7457 6.48091 22.2227 12.0039 22.2227C17.5269 22.2227 22.0039 17.7457 22.0039 12.2227C22.0039 6.69966 17.5269 2.22266 12.0039 2.22266ZM7.68691 12.1557C7.74495 12.0976 7.81385 12.0516 7.88969 12.0201C7.96553 11.9887 8.04682 11.9725 8.12891 11.9725C8.211 11.9725 8.29228 11.9887 8.36812 12.0201C8.44396 12.0516 8.51287 12.0976 8.57091 12.1557L11.3789 14.9637V7.84766C11.3789 7.6819 11.4448 7.52292 11.562 7.40571C11.6792 7.2885 11.8381 7.22266 12.0039 7.22266C12.1697 7.22266 12.3286 7.2885 12.4458 7.40571C12.5631 7.52292 12.6289 7.6819 12.6289 7.84766V14.9637L15.4369 12.1557C15.5541 12.0384 15.7131 11.9726 15.8789 11.9726C16.0447 11.9726 16.2037 12.0384 16.3209 12.1557C16.4381 12.2729 16.504 12.4319 16.504 12.5977C16.504 12.7634 16.4381 12.9224 16.3209 13.0397L12.4459 16.9147C12.3879 16.9727 12.319 17.0188 12.2431 17.0502C12.1673 17.0816 12.086 17.0978 12.0039 17.0978C11.9218 17.0978 11.8405 17.0816 11.7647 17.0502C11.6889 17.0188 11.6199 16.9727 11.5619 16.9147L7.68691 13.0397C7.62885 12.9816 7.5828 12.9127 7.55138 12.8369C7.51996 12.761 7.50379 12.6797 7.50379 12.5977C7.50379 12.5156 7.51996 12.4343 7.55138 12.3584C7.5828 12.2826 7.62885 12.2137 7.68691 12.1557Z" fill="url(#paint0_linear_86_9)"/>
<defs>
<linearGradient id="paint0_linear_86_9" x1="22.0039" y1="22.2227" x2="2.00391" y2="2.22266" gradientUnits="userSpaceOnUse">
<stop stop-color="#40E398"/>
<stop offset="1" stop-color="#26C1B5"/>
</linearGradient>
</defs>
</svg>
