<svg width="25" height="25" viewBox="0 0 25 25" fill="none" xmlns="http://www.w3.org/2000/svg">
<path d="M22.0049 12.2476C22.0049 6.72456 17.5279 2.24756 12.0049 2.24756C6.48191 2.24756 2.00491 6.72456 2.00491 12.2476C2.00491 17.7706 6.48191 22.2476 12.0049 22.2476C17.5279 22.2476 22.0049 17.7706 22.0049 12.2476ZM7.47491 12.5276C7.3479 12.4006 7.27067 12.2322 7.25727 12.0531C7.24388 11.874 7.2952 11.696 7.40191 11.5516L7.47391 11.4666L11.4749 7.46656C11.602 7.33928 11.7705 7.26189 11.9498 7.24849C12.1292 7.23509 12.3074 7.28657 12.4519 7.39356L12.5359 7.46656L16.5359 11.4676C16.6701 11.6014 16.7487 11.781 16.7558 11.9704C16.7629 12.1598 16.6981 12.3449 16.5743 12.4884C16.4505 12.6319 16.277 12.7233 16.0887 12.7441C15.9003 12.7649 15.711 12.7136 15.5589 12.6006L15.4749 12.5286L12.7549 9.80656V16.4976C12.7551 16.6791 12.6894 16.8546 12.5701 16.9914C12.4507 17.1282 12.2858 17.2171 12.1059 17.2416L12.0049 17.2476C11.8237 17.2476 11.6486 17.1819 11.512 17.0628C11.3754 16.9437 11.2866 16.7791 11.2619 16.5996L11.2549 16.4976V9.80756L8.53491 12.5276C8.40787 12.6548 8.23932 12.7322 8.05998 12.7456C7.88064 12.759 7.70246 12.7075 7.55791 12.6006L7.47391 12.5276H7.47491Z" fill="url(#paint0_linear_86_7)"/>
<defs>
<linearGradient id="paint0_linear_86_7" x1="22.0049" y1="2.24756" x2="2.00491" y2="2.24756" gradientUnits="userSpaceOnUse">
<stop stop-color="#FF6901"/>
<stop offset="1" stop-color="#EE0A78"/>
</linearGradient>
</defs>
</svg>
