<svg width="25" height="25" viewBox="0 0 25 25" fill="none" xmlns="http://www.w3.org/2000/svg">
<rect width="24" height="24" transform="translate(0.996094 0.297363)" fill="url(#paint0_linear_71_21)"/>
<path d="M22.2802 8.57296L16.3294 7.70812L13.6692 2.31515C13.5966 2.16749 13.477 2.04796 13.3294 1.9753C12.9591 1.79249 12.5091 1.94483 12.3239 2.31515L9.66376 7.70812L3.71297 8.57296C3.54891 8.5964 3.39891 8.67374 3.28407 8.79093C3.14523 8.93363 3.06872 9.12562 3.07136 9.3247C3.07399 9.52378 3.15556 9.71367 3.29813 9.85265L7.6036 14.0503L6.58641 19.9777C6.56256 20.1155 6.57782 20.2573 6.63046 20.387C6.68309 20.5166 6.77101 20.629 6.88423 20.7112C6.99745 20.7934 7.13144 20.8423 7.27102 20.8522C7.4106 20.8622 7.55017 20.8328 7.67391 20.7675L12.9966 17.9691L18.3192 20.7675C18.4645 20.8448 18.6333 20.8706 18.795 20.8425C19.2028 20.7722 19.477 20.3855 19.4067 19.9777L18.3895 14.0503L22.695 9.85265C22.8122 9.73781 22.8895 9.5878 22.913 9.42374C22.9763 9.01359 22.6903 8.6339 22.2802 8.57296Z" fill="white"/>
<defs>
<linearGradient id="paint0_linear_71_21" x1="24" y1="0" x2="0" y2="0" gradientUnits="userSpaceOnUse">
<stop stop-color="#FF6901"/>
<stop offset="1" stop-color="#EE0A78"/>
</linearGradient>
</defs>
</svg>
