<svg width="51" height="51" viewBox="0 0 51 51" fill="none" xmlns="http://www.w3.org/2000/svg">
<path d="M27.832 13.7627V15.4385H29.3945V13.7627C30.2969 13.4768 30.957 12.6416 30.957 11.6463C30.957 10.7971 30.4852 10.033 29.7242 9.65176L28.2008 8.89004C27.9734 8.77676 27.832 8.54785 27.832 8.29316C27.832 7.92598 28.1313 7.62598 28.4992 7.62598H28.7273C29.0953 7.62598 29.3945 7.92598 29.3945 8.29316V8.40723H30.957V8.29316C30.957 7.29707 30.2969 6.46191 29.3945 6.17676V4.50098H27.832V6.17676C26.9297 6.4627 26.2695 7.29785 26.2695 8.29316C26.2695 9.14238 26.7414 9.90645 27.5023 10.2877L29.0258 11.0494C29.2531 11.1627 29.3945 11.3916 29.3945 11.6463C29.3945 12.0135 29.0953 12.3135 28.7273 12.3135H28.4992C28.1313 12.3135 27.832 12.0135 27.832 11.6463V10.751H26.2695V11.6463C26.2695 12.6416 26.9297 13.4768 27.832 13.7627Z" fill="white"/>
<path d="M9.49766 15.9775C11.1953 16.6572 12.9836 17.001 14.8125 17.001C15.1789 17.001 15.5453 16.9869 15.9102 16.9588L22.9461 16.4174C24.5164 17.7986 26.5109 18.5635 28.6133 18.5635C33.3516 18.5635 37.207 14.708 37.207 9.96973C37.207 5.23145 33.3516 1.37598 28.6133 1.37598C27.4875 1.37598 26.4141 1.59941 25.4273 1.99473C23.9672 1.4127 22.3742 1.23301 20.8117 1.49316L13.5211 2.70879C12.5109 2.87676 11.5141 3.15488 10.5586 3.5377L8.24531 4.4627L1.26953 2.71895V17.2213L8.24531 15.4775L9.49766 15.9775ZM35.6445 9.96973C35.6445 13.8471 32.4898 17.001 28.6133 17.001C27.3141 17.001 26.0648 16.6424 24.9766 15.9814C25.7477 15.5236 26.2695 14.69 26.2695 13.7432C26.2695 12.5424 25.4555 11.5002 24.2906 11.2096L21.9484 10.6236C21.8391 10.5963 21.732 10.5619 21.6234 10.533C21.6094 10.3447 21.582 10.158 21.582 9.96973C21.582 6.09238 24.7367 2.93848 28.6133 2.93848C32.4898 2.93848 35.6445 6.09238 35.6445 9.96973ZM20.0219 10.0416C19.0797 9.71582 18.1547 9.33535 17.2633 8.89004C17.0359 8.77676 16.8945 8.54785 16.8945 8.29316C16.8945 7.92598 17.1938 7.62598 17.5617 7.62598H20.3523C20.1406 8.37207 20.0195 9.15645 20.0195 9.96973C20.0195 9.99395 20.0219 10.0182 20.0219 10.0416ZM11.1391 4.98848C11.9906 4.64785 12.8789 4.39941 13.7781 4.2502L21.0688 3.03457C21.8836 2.89863 22.707 2.92441 23.5094 3.07207C22.4484 3.85879 21.5758 4.87988 20.968 6.06348H17.5617C16.332 6.06348 15.332 7.06348 15.332 8.29316C15.332 9.14238 15.8039 9.90644 16.5648 10.2877C18.1594 11.0846 19.843 11.7072 21.5703 12.1385L23.9125 12.7244C24.3805 12.8424 24.707 13.2611 24.707 13.7432C24.707 14.2877 24.2812 14.7471 23.7383 14.7893L15.7898 15.401C13.8422 15.5533 11.893 15.2533 10.0781 14.5268L9.08203 14.1283V5.81113L11.1391 4.98848ZM7.51953 14.0471L2.83203 15.2189V4.72051L7.51953 5.89238V14.0471Z" fill="white"/>
<path d="M47.5617 29.9525L44.1352 24.8135H44.2383C45.5305 24.8135 46.582 23.7619 46.582 22.4697C46.582 21.1775 45.5305 20.126 44.2383 20.126H14.5508C13.2586 20.126 12.207 21.1775 12.207 22.4697C12.207 23.7619 13.2586 24.8135 14.5508 24.8135H14.6539L11.2281 29.9525C9.82422 32.0572 9.08203 34.508 9.08203 37.0385C9.08203 44.083 14.8125 49.8135 21.857 49.8135H23.9258H36.4258H36.932C43.9766 49.8135 49.707 44.083 49.707 37.0385C49.707 34.508 48.9648 32.0572 47.5617 29.9525ZM13.7695 22.4697C13.7695 22.0385 14.1203 21.6885 14.5508 21.6885H44.2383C44.6688 21.6885 45.0195 22.0385 45.0195 22.4697C45.0195 22.901 44.6688 23.251 44.2383 23.251H14.5508C14.1203 23.251 13.7695 22.901 13.7695 22.4697ZM23.1445 42.001V40.4385H24.707V42.001H26.2695V40.4385H27.0508H27.832V42.001H29.3945V40.4385H30.957V42.001H32.5195V40.4385H33.3008C33.7313 40.4385 34.082 40.7885 34.082 41.2197V42.7822C34.082 43.2135 33.7313 43.5635 33.3008 43.5635H23.9258H20.8008C20.3703 43.5635 20.0195 43.2135 20.0195 42.7822V41.2197C20.0195 40.7885 20.3703 40.4385 20.8008 40.4385H21.582V42.001H23.1445ZM26.2695 38.0947V36.5322C26.2695 36.101 26.6203 35.751 27.0508 35.751H27.832V37.3135H29.3945V35.751H30.957V37.3135H32.5195V35.751H34.082V37.3135H35.6445V35.751H36.4258H37.207V37.3135H38.7695V35.751H39.5508C39.9813 35.751 40.332 36.101 40.332 36.5322V38.0947C40.332 38.526 39.9813 38.876 39.5508 38.876H33.3008H27.0508C26.6203 38.876 26.2695 38.526 26.2695 38.0947ZM26.2695 32.626V31.0635H27.832V32.626H29.3945V31.0635H30.957V32.626H32.5195V31.0635H34.082V32.626H35.6445V31.0635H36.4258C36.8563 31.0635 37.207 31.4135 37.207 31.8447V33.4072C37.207 33.8385 36.8563 34.1885 36.4258 34.1885H27.0508H23.9258C23.4953 34.1885 23.1445 33.8385 23.1445 33.4072V31.8447C23.1445 31.4135 23.4953 31.0635 23.9258 31.0635H24.707V32.626H26.2695ZM23.9258 48.251C23.4953 48.251 23.1445 47.901 23.1445 47.4697V45.9072C23.1445 45.476 23.4953 45.126 23.9258 45.126H24.707V46.6885H26.2695V45.126H27.832V46.6885H29.3945V45.126H30.957V46.6885H32.5195V45.126H33.3008H34.082V46.6885H35.6445V45.126H36.4258C36.8563 45.126 37.207 45.476 37.207 45.9072V47.4697C37.207 47.901 36.8563 48.251 36.4258 48.251H23.9258ZM38.6719 48.1018C38.7289 47.8994 38.7695 47.69 38.7695 47.4697V45.9072C38.7695 44.615 37.718 43.5635 36.4258 43.5635H35.5008C35.5883 43.3182 35.6445 43.0572 35.6445 42.7822V41.2197C35.6445 40.9447 35.5883 40.6838 35.5008 40.4385H39.5508C40.843 40.4385 41.8945 39.3869 41.8945 38.0947V36.5322C41.8945 35.24 40.843 34.1885 39.5508 34.1885H38.6258C38.7133 33.9432 38.7695 33.6822 38.7695 33.4072V31.8447C38.7695 30.5525 37.718 29.501 36.4258 29.501H23.9258C22.6336 29.501 21.582 30.5525 21.582 31.8447V33.4072C21.582 34.6994 22.6336 35.751 23.9258 35.751H24.8508C24.7633 35.9963 24.707 36.2572 24.707 36.5322V38.0947C24.707 38.3697 24.7633 38.6307 24.8508 38.876H20.8008C19.5086 38.876 18.457 39.9275 18.457 41.2197V42.7822C18.457 44.0744 19.5086 45.126 20.8008 45.126H21.7258C21.6383 45.3713 21.582 45.6322 21.582 45.9072V47.4697C21.582 47.7424 21.6375 48.001 21.7242 48.2439C15.6031 48.1721 10.6445 43.176 10.6445 37.0385C10.6445 34.8174 11.2953 32.6666 12.5273 30.8189L16.5312 24.8135H42.2578L46.2617 30.8197C47.4938 32.6674 48.1445 34.8182 48.1445 37.0393C48.1445 42.6275 44.0289 47.2611 38.6719 48.1018Z" fill="white"/>
<path d="M39.838 26.7964L41.1378 25.9293L42.18 27.4917L40.8802 28.3588L39.838 26.7964Z" fill="white"/>
<path d="M44.9617 31.6861L43.2164 29.0674L41.9164 29.9338L43.6617 32.5525C44.55 33.8854 45.0195 35.4369 45.0195 37.0385L45.0156 37.29L46.5773 37.3361C46.5804 37.2369 46.582 37.1377 46.582 37.0385C46.582 35.1275 46.0219 33.2768 44.9617 31.6861Z" fill="white"/>
<path d="M12.9445 40.7387C13.2023 41.3574 13.5266 41.952 13.9078 42.5051L15.1937 41.6168C14.8742 41.1535 14.6031 40.6566 14.3875 40.1387L12.9445 40.7387Z" fill="white"/>
<path d="M13.8273 31.6861C12.7672 33.2768 12.207 35.1275 12.207 37.0385C12.207 37.7111 12.2773 38.3846 12.4156 39.0377L13.9445 38.7143C13.8281 38.1674 13.7695 37.6033 13.7695 37.0385C13.7695 35.4361 14.2391 33.8854 15.1273 32.5525L15.3102 32.2775L14.0102 31.4111L13.8273 31.6861Z" fill="white"/>
</svg>
