<svg width="51" height="51" viewBox="0 0 51 51" fill="none" xmlns="http://www.w3.org/2000/svg">
<g clip-path="url(#clip0_58_65)">
<path d="M25.4883 0.972168C21.8893 0.974308 18.3359 1.77855 15.0868 3.32641C11.8376 4.87427 8.97423 7.12683 6.70493 9.92028C4.43564 12.7137 2.81745 15.9778 1.96807 19.4752C1.11868 22.9726 1.05944 26.6153 1.79466 30.1384C2.52989 33.6615 4.04108 36.9765 6.21835 39.8423C8.39562 42.708 11.1842 45.0525 14.3814 46.7052C17.5785 48.3579 21.1038 49.2772 24.7008 49.3964C28.2979 49.5155 31.8763 48.8315 35.1758 47.394L34.5508 45.9628C29.8142 48.0253 24.5144 48.4048 19.5322 47.0383C14.55 45.6718 10.1854 42.6416 7.16381 38.4512C4.1422 34.2608 2.64551 29.1626 2.92247 24.0038C3.19943 18.8451 5.23336 13.9364 8.68625 10.0936C12.1391 6.25083 16.8031 3.7053 21.9029 2.88008C27.0028 2.05487 32.2315 2.99965 36.72 5.55742C41.2086 8.1152 44.6868 12.1319 46.5765 16.9401C48.4662 21.7483 48.6537 27.0583 47.1078 31.9878L48.5984 32.4565C49.735 28.8286 50.0022 24.9843 49.3785 21.234C48.7548 17.4838 47.2577 13.9328 45.0081 10.8681C42.7585 7.80333 39.8195 5.31072 36.4287 3.59165C33.0378 1.87258 29.29 0.975251 25.4883 0.972168Z" fill="white"/>
<path d="M44.2383 28.3159H37.9883C37.7811 28.3159 37.5823 28.3982 37.4358 28.5447C37.2893 28.6913 37.207 28.89 37.207 29.0972V40.8159H34.8633C34.7127 40.816 34.5654 40.8596 34.4391 40.9415C34.3128 41.0233 34.2128 41.1399 34.1511 41.2772C34.0895 41.4145 34.0688 41.5667 34.0916 41.7155C34.1144 41.8643 34.1797 42.0034 34.2797 42.1159L40.5297 49.1472C40.603 49.2295 40.6929 49.2954 40.7934 49.3406C40.894 49.3857 41.003 49.409 41.1133 49.409C41.2235 49.409 41.3325 49.3857 41.4331 49.3406C41.5337 49.2954 41.6236 49.2295 41.6969 49.1472L47.9469 42.1159C48.0468 42.0034 48.1121 41.8643 48.1349 41.7155C48.1577 41.5667 48.1371 41.4145 48.0754 41.2772C48.0138 41.1399 47.9138 41.0233 47.7874 40.9415C47.6611 40.8596 47.5138 40.816 47.3633 40.8159H45.0195V29.0972C45.0195 28.89 44.9372 28.6913 44.7907 28.5447C44.6442 28.3982 44.4455 28.3159 44.2383 28.3159ZM45.6234 42.3784L41.1133 47.4565L36.6031 42.3784H37.9883C38.1955 42.3784 38.3942 42.2961 38.5407 42.1496C38.6872 42.0031 38.7695 41.8044 38.7695 41.5972V29.8784H43.457V41.5972C43.457 41.8044 43.5393 42.0031 43.6858 42.1496C43.8323 42.2961 44.0311 42.3784 44.2383 42.3784H45.6234Z" fill="white"/>
<path d="M25.4883 6.44092C25.2972 6.4409 25.1127 6.51093 24.9697 6.63777C24.8268 6.7646 24.7353 6.93944 24.7125 7.1292L22.5563 25.1042L18.3313 31.8636C18.2376 32.0134 18.1976 32.1905 18.2175 32.366C18.2375 32.5416 18.3164 32.7051 18.4413 32.8301C18.5663 32.955 18.7298 33.0339 18.9054 33.0539C19.0809 33.0739 19.258 33.0338 19.4078 32.9401L28.2461 27.4159C28.3719 27.3373 28.4727 27.2245 28.5368 27.0908C28.6008 26.957 28.6255 26.8077 28.6078 26.6604L26.2641 7.1292C26.2414 6.93944 26.1498 6.7646 26.0069 6.63777C25.8639 6.51093 25.6794 6.4409 25.4883 6.44092ZM26.9977 26.3534L21.4508 29.8214L23.9742 25.7847C24.0349 25.6871 24.0735 25.5776 24.0875 25.4636L25.4883 13.78L26.9977 26.3534Z" fill="white"/>
</g>
<defs>
<clipPath id="clip0_58_65">
<rect width="50" height="50" fill="white" transform="translate(0.488281 0.190918)"/>
</clipPath>
</defs>
</svg>
