<svg width="51" height="51" viewBox="0 0 51 51" fill="none" xmlns="http://www.w3.org/2000/svg">
<g clip-path="url(#clip0_58_78)">
<path fill-rule="evenodd" clip-rule="evenodd" d="M7.15493 4.33203H6.3216C4.94088 4.33203 3.82159 5.45132 3.82159 6.83203V7.66537C3.82159 8.12561 4.19469 8.4987 4.65493 8.4987C5.11517 8.4987 5.48826 8.12561 5.48826 7.66537V6.83203C5.48826 6.3718 5.86136 5.9987 6.3216 5.9987H7.15493C7.61517 5.9987 7.98827 5.6256 7.98827 5.16537C7.98827 4.70513 7.61517 4.33203 7.15493 4.33203Z" fill="white"/>
<path fill-rule="evenodd" clip-rule="evenodd" d="M30.4883 25.9987H31.3216C32.7024 25.9987 33.8216 24.8794 33.8216 23.4987V22.6654C33.8216 22.2051 33.4485 21.832 32.9883 21.832C32.5281 21.832 32.155 22.2051 32.155 22.6654V23.4987C32.155 23.9589 31.7819 24.332 31.3216 24.332H30.4883C30.0281 24.332 29.655 24.7051 29.655 25.1654C29.655 25.6256 30.0281 25.9987 30.4883 25.9987Z" fill="white"/>
<path d="M46.3216 10.9985H37.1549V6.83187C37.1508 3.61192 34.5416 1.00267 31.3216 0.998535H6.32161C3.10167 1.00267 0.492413 3.61192 0.488281 6.83187V23.4985C0.492413 26.7185 3.10167 29.3277 6.32161 29.3319H8.82161V46.8319C8.82437 49.1319 10.6882 50.9958 12.9883 50.9985H46.3216C48.6217 50.9958 50.4855 49.1319 50.4883 46.8319V15.1652C50.4855 12.8652 48.6217 11.0013 46.3216 10.9985ZM46.3216 12.6652C47.7023 12.6652 48.8216 13.7845 48.8216 15.1652V17.6652H37.1549V12.6652H46.3216ZM2.15495 23.4985V6.83187C2.1577 4.53182 4.02157 2.66796 6.32161 2.6652H31.3216C33.6217 2.66796 35.4855 4.53182 35.4883 6.83187V23.4985C35.4855 25.7986 33.6217 27.6624 31.3216 27.6652C30.4011 27.6652 29.6549 28.4114 29.6549 29.3319L29.6666 33.5085L23.7799 28.0877C23.4748 27.8157 23.0804 27.6654 22.6716 27.6652H6.32161C4.02157 27.6624 2.1577 25.7986 2.15495 23.4985ZM46.3216 49.3319H12.9883C11.6076 49.3319 10.4883 48.2126 10.4883 46.8319V29.3319L22.6599 29.3244L28.5474 34.746C28.8498 35.0186 29.2421 35.17 29.6491 35.171C29.8866 35.1703 30.1212 35.1192 30.3374 35.021C30.9406 34.7562 31.3278 34.1573 31.3216 33.4985V29.3319C34.5416 29.3277 37.1508 26.7185 37.1549 23.4985V19.3319H48.8216V46.8319C48.8216 48.2126 47.7023 49.3319 46.3216 49.3319Z" fill="white"/>
<path fill-rule="evenodd" clip-rule="evenodd" d="M45.4883 15.9987H46.3216C46.7819 15.9987 47.155 15.6256 47.155 15.1654C47.155 14.7051 46.7819 14.332 46.3216 14.332H45.4883C45.0281 14.332 44.655 14.7051 44.655 15.1654C44.655 15.6256 45.0281 15.9987 45.4883 15.9987Z" fill="white"/>
<path fill-rule="evenodd" clip-rule="evenodd" d="M20.4883 43.4985H15.4883C15.0281 43.4985 14.655 43.8716 14.655 44.3319C14.655 44.7921 15.0281 45.1652 15.4883 45.1652H20.4883C20.9485 45.1652 21.3216 44.7921 21.3216 44.3319C21.3216 43.8716 20.9485 43.4985 20.4883 43.4985Z" fill="white"/>
<path fill-rule="evenodd" clip-rule="evenodd" d="M43.8216 43.4985H23.8216C23.3614 43.4985 22.9883 43.8716 22.9883 44.3319C22.9883 44.7921 23.3614 45.1652 23.8216 45.1652H43.8216C44.2819 45.1652 44.655 44.7921 44.655 44.3319C44.655 43.8716 44.2819 43.4985 43.8216 43.4985Z" fill="white"/>
<path fill-rule="evenodd" clip-rule="evenodd" d="M43.8216 38.4985H15.4883C15.0281 38.4985 14.655 38.8716 14.655 39.3319C14.655 39.7921 15.0281 40.1652 15.4883 40.1652H43.8216C44.2819 40.1652 44.655 39.7921 44.655 39.3319C44.655 38.8716 44.2819 38.4985 43.8216 38.4985Z" fill="white"/>
<path d="M13.8216 25.9987H23.8216C25.6626 25.9987 27.155 24.5063 27.155 22.6654V15.9987C27.1493 14.4834 26.1222 13.1625 24.655 12.7837V10.1654C24.655 6.9437 22.0433 4.33203 18.8216 4.33203C15.6 4.33203 12.9883 6.9437 12.9883 10.1654V12.7837C11.521 13.1625 10.494 14.4834 10.4883 15.9987V22.6654C10.4883 24.5063 11.9807 25.9987 13.8216 25.9987ZM18.8216 5.9987C21.1217 6.00145 22.9855 7.86532 22.9883 10.1654V12.6654H21.3216V10.1654C21.3216 8.78465 20.2023 7.66537 18.8216 7.66537C17.4409 7.66537 16.3216 8.78465 16.3216 10.1654V12.6654H14.655V10.1654C14.6577 7.86532 16.5216 6.00145 18.8216 5.9987ZM17.9883 12.6654V10.1654C17.9883 9.70513 18.3614 9.33203 18.8216 9.33203C19.2819 9.33203 19.655 9.70513 19.655 10.1654V12.6654H17.9883ZM12.1549 15.9987C12.1549 15.0782 12.9011 14.332 13.8216 14.332H23.8216C24.7421 14.332 25.4883 15.0782 25.4883 15.9987V22.6654C25.4883 23.5858 24.7421 24.332 23.8216 24.332H13.8216C12.9011 24.332 12.1549 23.5858 12.1549 22.6654V15.9987Z" fill="white"/>
<path d="M17.9883 20.8453V21.832C17.9883 22.2922 18.3613 22.6653 18.8216 22.6653C19.2818 22.6653 19.6549 22.2922 19.6549 21.832V20.8453C20.8029 20.4394 21.4915 19.2656 21.2856 18.0655C21.0797 16.8655 20.0392 15.9883 18.8216 15.9883C17.604 15.9883 16.5635 16.8655 16.3576 18.0655C16.1517 19.2656 16.8403 20.4394 17.9883 20.8453ZM18.8216 17.6653C19.2818 17.6653 19.6549 18.0384 19.6549 18.4986C19.6549 18.9589 19.2818 19.332 18.8216 19.332C18.3613 19.332 17.9883 18.9589 17.9883 18.4986C17.9883 18.0384 18.3613 17.6653 18.8216 17.6653Z" fill="white"/>
</g>
<defs>
<clipPath id="clip0_58_78">
<rect width="50" height="50" fill="white" transform="translate(0.488281 0.998535)"/>
</clipPath>
</defs>
</svg>
